<?xml version="1.0" standalone="no"?>
<!DOCTYPE svg PUBLIC "-//W3C//DTD SVG 20010904//EN"
 "http://www.w3.org/TR/2001/REC-SVG-20010904/DTD/svg10.dtd">
<svg version="1.0" xmlns="http://www.w3.org/2000/svg"
 width="503.000000pt" height="496.000000pt" viewBox="0 0 503.000000 496.000000"
 preserveAspectRatio="xMidYMid meet">

<g transform="translate(0.000000,496.000000) scale(0.100000,-0.100000)"
fill="#000000" stroke="none">
<path d="M3443 4292 c-576 -1 -933 -6 -933 -12 0 -5 -12 -21 -26 -37 -35 -38
-93 -37 -129 1 -14 15 -25 31 -25 37 0 13 -1917 12 -1925 -1 -3 -5 -14 -10
-23 -10 -22 0 -94 -67 -112 -102 -7 -16 -17 -28 -22 -28 -4 0 -8 -558 -8
-1240 l0 -1240 2180 0 2180 0 0 1240 c0 804 -3 1240 -10 1240 -5 0 -12 11 -16
25 -3 13 -26 42 -51 62 -44 37 -54 42 -118 60 -16 4 -450 7 -962 5z m-2853
-487 l0 -165 -95 0 -95 0 0 165 0 165 95 0 95 0 0 -165z m693 -3 l2 -162 -92
0 -93 0 0 165 0 166 91 -3 90 -3 2 -163z m1367 151 c14 -6 59 -22 100 -34 41
-13 86 -29 100 -36 14 -7 31 -13 38 -13 6 0 12 -4 12 -10 0 -5 9 -10 19 -10
11 0 21 -3 23 -7 2 -5 24 -19 51 -33 26 -13 47 -28 47 -32 0 -5 6 -8 13 -8 6
0 30 -16 52 -36 121 -110 159 -151 193 -206 9 -16 20 -28 24 -28 4 0 8 -9 8
-20 0 -11 4 -20 9 -20 5 0 17 -20 28 -45 10 -25 21 -45 25 -45 3 0 9 -13 13
-30 4 -16 11 -30 16 -30 5 0 9 -15 9 -32 0 -18 7 -51 15 -73 8 -22 14 -68 15
-102 0 -35 4 -63 9 -63 10 0 9 -115 -1 -126 -5 -4 -8 -28 -8 -53 -1 -25 -6
-66 -11 -91 -6 -25 -13 -60 -16 -77 -3 -18 -9 -33 -14 -33 -5 0 -9 -10 -9 -22
0 -13 -14 -43 -30 -68 -16 -25 -30 -51 -30 -57 0 -7 -4 -13 -10 -13 -5 0 -10
-8 -10 -17 0 -10 -14 -31 -30 -47 -17 -16 -30 -38 -30 -48 0 -10 -4 -18 -10
-18 -5 0 -18 -10 -30 -22 -19 -20 -20 -34 -20 -205 0 -141 -3 -192 -15 -220
-18 -43 -59 -83 -85 -83 -10 0 -22 -4 -25 -10 -9 -14 -1321 -14 -1330 0 -3 6
-15 10 -26 10 -10 0 -19 4 -19 9 0 5 -9 12 -19 16 -11 3 -29 25 -40 49 -19 38
-21 61 -21 227 0 205 6 183 -82 282 -21 23 -38 48 -38 55 0 7 -7 20 -15 28 -8
9 -15 24 -15 35 0 10 -4 19 -10 19 -5 0 -12 11 -16 25 -3 14 -10 25 -14 25 -4
0 -10 15 -13 33 -2 17 -14 58 -26 89 -13 35 -21 81 -21 117 0 33 -4 63 -10 66
-5 3 -10 33 -10 65 0 32 5 62 10 65 6 3 10 34 10 68 1 37 9 85 21 117 11 30
22 64 26 75 9 32 86 190 95 193 4 2 8 8 8 13 0 6 13 24 30 42 16 18 30 36 30
40 0 8 57 67 64 67 3 0 20 15 38 33 55 51 87 77 98 77 6 0 10 3 10 8 0 4 15
15 33 26 79 45 141 76 153 76 7 0 14 3 16 8 2 4 41 18 88 31 47 13 90 27 95
32 19 14 70 17 255 15 110 -1 195 -6 210 -13z m1090 -148 l0 -165 -90 0 -90 0
0 165 0 165 90 0 90 0 0 -165z m700 0 l0 -165 -95 0 -95 0 0 165 0 165 95 0
95 0 0 -165z m-3500 -5 l0 -80 -90 0 -90 0 0 80 0 80 90 0 90 0 0 -80z m3140
0 l0 -80 -90 0 -90 0 0 80 0 80 90 0 90 0 0 -80z m-3490 -485 l0 -165 -95 0
-95 0 0 165 0 165 95 0 95 0 0 -165z m690 0 l0 -165 -90 0 -90 0 0 165 0 165
90 0 90 0 0 -165z m2460 0 l0 -165 -90 0 -90 0 0 165 0 165 90 0 90 0 0 -165z
m700 0 l0 -165 -95 0 -95 0 0 158 c0 87 3 162 7 165 3 4 46 7 95 7 l88 0 0
-165z m-3502 -7 l-3 -83 -87 -3 -88 -3 0 86 0 85 90 0 91 0 -3 -82z m3142 -3
l0 -85 -90 0 -90 0 0 85 0 85 90 0 90 0 0 -85z m-3490 -490 l0 -165 -95 0 -95
0 0 165 0 165 95 0 95 0 0 -165z m692 0 l-3 -165 -89 0 -90 0 0 165 0 165 93
0 92 0 -3 -165z m2458 0 l0 -165 -90 0 -90 0 0 165 0 165 90 0 90 0 0 -165z
m700 0 l0 -166 -92 3 -93 3 -3 163 -2 162 95 0 95 0 0 -165z m-3502 -2 l3 -93
-91 0 -90 0 0 95 0 96 88 -3 87 -3 3 -92z m3142 2 l0 -95 -90 0 -90 0 0 88 c0
49 3 92 7 95 3 4 44 7 90 7 l83 0 0 -95z m-3490 -500 l0 -166 -92 3 -93 3 -3
163 -2 162 95 0 95 0 0 -165z m690 1 l0 -165 -86 -3 c-47 -2 -88 -1 -90 1 -2
2 -4 78 -4 168 l0 163 90 0 90 0 0 -164z m2460 1 c0 -90 -2 -166 -4 -168 -2
-2 -43 -3 -90 -1 l-86 3 0 165 0 164 90 0 90 0 0 -163z m700 3 c0 -185 8 -173
-115 -168 l-70 3 -3 163 -2 162 95 0 95 0 0 -160z m-3500 0 l0 -80 -90 0 -90
0 0 80 0 80 90 0 90 0 0 -80z m3140 0 l0 -80 -90 0 -90 0 0 80 0 80 90 0 90 0
0 -80z"/>
<path d="M2300 3794 c-19 -3 -42 -8 -50 -11 -16 -7 -107 -30 -155 -40 -16 -3
-32 -9 -35 -12 -3 -3 -21 -14 -40 -24 -68 -36 -95 -52 -108 -64 -7 -7 -17 -13
-20 -13 -7 0 -23 -13 -87 -69 -5 -5 -28 -30 -50 -56 -22 -25 -49 -56 -60 -68
-24 -27 -85 -143 -85 -163 0 -8 -3 -14 -8 -14 -4 0 -13 -28 -20 -62 -8 -35
-17 -81 -22 -103 -20 -94 2 -300 41 -390 5 -11 13 -31 19 -45 22 -57 87 -155
142 -213 l38 -41 0 -208 0 -209 88 3 87 3 3 163 2 162 90 0 90 0 2 -162 3
-163 83 -3 82 -3 0 166 0 165 90 0 90 0 0 -165 0 -166 83 3 82 3 3 163 2 162
90 0 90 0 0 -165 0 -165 90 0 90 0 0 208 0 209 50 51 c28 28 50 55 50 60 0 4
8 17 18 28 22 25 72 126 72 147 0 10 5 17 10 17 6 0 10 9 10 20 0 11 4 20 9
20 20 0 31 266 16 393 -4 37 -12 67 -16 67 -5 0 -9 7 -9 15 0 20 -110 235
-121 235 -4 0 -11 9 -14 20 -3 11 -13 20 -21 20 -8 0 -14 4 -14 9 0 14 -91
101 -106 101 -3 0 -12 6 -19 13 -35 31 -102 71 -147 88 -16 6 -28 15 -28 20 0
5 -13 9 -29 9 -17 0 -32 4 -35 9 -4 5 -30 12 -59 16 -28 4 -57 11 -64 17 -12
10 -236 19 -293 12z m-454 -469 c10 -8 27 -15 37 -15 9 0 17 -4 17 -9 0 -5 13
-12 30 -16 16 -4 32 -11 35 -16 4 -5 17 -9 31 -9 13 0 24 -3 24 -8 0 -8 91
-52 109 -52 6 0 11 -4 11 -10 0 -5 5 -10 12 -10 6 0 40 -14 75 -31 l63 -31 0
-100 c0 -97 -17 -168 -41 -168 -5 0 -9 -5 -9 -11 0 -11 -24 -39 -34 -39 -3 0
-17 -11 -32 -25 -14 -13 -43 -27 -63 -30 -20 -4 -46 -10 -59 -16 -30 -12 -72
-12 -72 1 0 6 -11 10 -25 10 -30 0 -105 36 -105 50 0 6 -5 10 -11 10 -26 0
-99 111 -99 149 0 6 -4 11 -10 11 -18 0 -12 150 8 202 10 26 21 50 25 54 4 4
7 18 7 31 0 13 4 31 9 41 5 9 12 25 15 35 7 21 26 22 52 2z m1200 -2 c4 -10
12 -32 20 -50 8 -17 14 -37 14 -45 0 -7 8 -26 17 -43 21 -37 26 -241 6 -253
-6 -4 -14 -19 -18 -33 -7 -29 -66 -99 -83 -99 -7 0 -12 -4 -12 -10 0 -13 -56
-41 -105 -52 -60 -14 -105 -17 -105 -7 0 5 -11 9 -25 9 -30 0 -105 36 -105 50
0 6 -5 10 -10 10 -18 0 -69 64 -70 88 0 12 -4 22 -10 22 -6 0 -10 41 -10 104
0 96 2 105 20 111 11 3 20 11 20 16 0 5 8 9 18 9 10 0 27 7 38 15 10 8 29 15
41 15 12 0 23 4 25 8 2 4 35 23 73 41 39 18 82 39 97 47 14 8 33 14 42 14 9 0
16 5 16 10 0 6 8 10 18 10 9 0 26 7 36 15 26 20 45 19 52 -2z"/>
<path d="M1900 3050 c0 -50 15 -84 53 -122 12 -13 32 -18 70 -18 48 0 54 3 75
35 12 19 22 40 22 47 0 7 -33 28 -73 46 -39 18 -84 40 -99 48 -42 23 -48 18
-48 -36z"/>
<path d="M2890 3085 c-27 -16 -123 -59 -154 -69 -21 -7 -16 -43 12 -82 14 -19
26 -23 70 -24 56 0 72 10 105 62 20 33 24 128 5 128 -7 0 -24 -7 -38 -15z"/>
<path d="M240 1412 c0 -63 4 -82 19 -98 10 -11 22 -30 25 -42 4 -12 12 -22 18
-22 6 0 20 -10 32 -22 11 -13 33 -31 48 -40 26 -17 140 -18 2043 -18 1337 0
2015 3 2015 10 0 6 6 10 14 10 8 0 28 13 44 30 17 16 33 30 37 30 11 0 35 28
35 40 0 6 7 13 15 16 12 5 15 25 15 95 l0 89 -1960 0 c-1543 0 -1965 -3 -1980
-12 -16 -10 -24 -10 -40 0 -14 8 -74 12 -200 12 l-180 0 0 -78z"/>
<path d="M1380 920 l0 -80 -180 0 -180 0 0 -79 c0 -74 2 -80 23 -87 24 -8 47
-8 1655 2 l1123 7 -3 81 -3 81 -177 3 -178 2 0 75 0 75 -1040 0 -1040 0 0 -80z"/>
</g>
</svg>
